<svg width="25" height="18" viewBox="0 0 25 18" fill="none" xmlns="http://www.w3.org/2000/svg">
<g clip-path="url(#clip0_13_449)">
<path d="M22.4446 0.633057C22.0821 0.633057 21.7881 0.934115 21.7881 1.3047V3.93159H21.0542V3.33294C21.0542 1.84432 19.8703 0.633057 18.4157 0.633057C17.6255 0.633057 16.9178 0.992303 16.4334 1.55685C15.9491 0.992303 15.2413 0.633057 14.4514 0.633057C13.6612 0.633057 12.953 0.992303 12.4691 1.55685C11.9848 0.992303 11.2768 0.633057 10.4868 0.633057C9.69692 0.633057 8.98873 0.992303 8.50464 1.55685C8.02055 0.992303 7.31237 0.633057 6.52231 0.633057C5.06757 0.633057 3.88373 1.84441 3.88373 3.33294V3.93159H2.55683C2.19464 3.93159 1.90039 4.23246 1.90039 4.60323C1.90039 4.97391 2.19464 5.27497 2.55683 5.27497H3.88272V15.3002C3.88272 16.7889 5.06666 18.0001 6.52131 18.0001C7.31136 18.0001 8.01955 17.6411 8.50364 17.0765C8.98773 17.6411 9.69573 18.0001 10.4858 18.0001C11.2758 18.0001 11.9838 17.6411 12.4679 17.0765C12.9519 17.6411 13.6602 18.0001 14.4501 18.0001C15.2399 18.0001 15.9485 17.6411 16.4324 17.0765C16.9162 17.6411 17.6249 18.0001 18.4147 18.0001C19.8697 18.0001 21.0535 16.7888 21.0535 15.3002V5.27544H22.4435C22.8059 5.27544 23.0999 4.97438 23.0999 4.60379V1.30517C23.1011 0.934115 22.8066 0.633057 22.4446 0.633057ZM19.7412 5.27544V15.3007C19.7412 16.0489 19.1466 16.6573 18.4157 16.6573C17.6848 16.6573 17.0899 16.049 17.0899 15.3007V5.27544V3.93205V3.3334C17.0899 2.58539 17.6848 1.97681 18.4157 1.97681C19.1466 1.97681 19.7412 2.5853 19.7412 3.3334V3.93205V5.27544ZM15.7765 15.3003C15.7765 16.0484 15.1816 16.6568 14.4507 16.6568C13.7198 16.6568 13.1248 16.0485 13.1248 15.3003V5.27544V3.93205V3.3334C13.1248 2.58539 13.7197 1.97681 14.4507 1.97681C15.1815 1.97681 15.7765 2.5853 15.7765 3.3334V3.93205V5.27544V15.3003ZM11.8121 15.3003C11.8121 16.0484 11.2174 16.6568 10.4865 16.6568C9.75571 16.6568 9.1609 16.0485 9.1609 15.3003V5.27544V3.93205V3.3334C9.1609 2.58539 9.75571 1.97681 10.4865 1.97681C11.2174 1.97681 11.8121 2.5853 11.8121 3.3334V3.93205V5.27544V15.3003ZM7.84747 15.3003C7.84747 16.0484 7.25248 16.6568 6.52167 16.6568C5.79078 16.6568 5.19606 16.0485 5.19606 15.3003V5.27544V3.93205V3.3334C5.19606 2.58539 5.79078 1.97681 6.52167 1.97681C7.25248 1.97681 7.84747 2.5853 7.84747 3.3334V3.93205V5.27544V15.3003Z" fill="#2B2E34"/>
</g>
<defs>
<clipPath id="clip0_13_449">
<rect width="25" height="18" fill="white"/>
</clipPath>
</defs>
</svg>
